<?xml version="1.0" encoding="utf-8"?>
<!-- Generator: Adobe Illustrator 25.0.1, SVG Export Plug-In . SVG Version: 6.00 Build 0)  -->
<svg version="1.1" id="Layer_1" xmlns="http://www.w3.org/2000/svg" xmlns:xlink="http://www.w3.org/1999/xlink" x="0px" y="0px"
	 viewBox="0 0 240 46" style="enable-background:new 0 0 240 46;" xml:space="preserve">
<style type="text/css">
	.st0{fill:#FFFFFF;}
	.st1{fill:#FF7415;}
</style>
<g>
	<path class="st0" d="M28.2,40.8c-0.1,0.5-0.2,1-0.4,1.4c-0.2,0.4-0.5,0.8-0.8,1.1s-0.7,0.5-1.2,0.7c-0.4,0.2-0.9,0.3-1.5,0.3
		s-1.2-0.1-1.7-0.3s-0.9-0.5-1.3-0.9s-0.6-0.8-0.8-1.4c-0.2-0.5-0.3-1.1-0.3-1.8s0.1-1.3,0.3-1.8c0.2-0.6,0.5-1,0.8-1.4
		c0.4-0.4,0.8-0.7,1.3-0.9s1.1-0.3,1.7-0.3c1.2,0,2.1,0.4,2.8,1.1c0.5,0.5,0.7,1.1,0.8,1.7H27c-0.1-0.6-0.4-1.1-0.9-1.5
		s-1-0.5-1.7-0.5c-0.5,0-0.9,0.1-1.2,0.3c-0.4,0.2-0.7,0.4-0.9,0.7c-0.3,0.3-0.5,0.7-0.6,1.1c-0.1,0.4-0.2,0.9-0.2,1.5
		c0,0.5,0.1,1,0.2,1.5c0.1,0.4,0.3,0.8,0.6,1.1c0.3,0.3,0.6,0.5,0.9,0.7c0.4,0.2,0.8,0.3,1.2,0.3c0.8,0,1.4-0.2,1.9-0.7
		s0.8-1.1,0.8-2C27.1,40.8,28.2,40.8,28.2,40.8z"/>
	<path class="st0" d="M39.7,35.5c0.6,0,1.2,0.1,1.7,0.3s0.9,0.5,1.3,0.9c0.4,0.4,0.6,0.9,0.8,1.4s0.3,1.1,0.3,1.8s-0.1,1.3-0.3,1.8
		s-0.5,1-0.8,1.4c-0.4,0.4-0.8,0.7-1.3,0.9s-1.1,0.3-1.7,0.3c-0.6,0-1.2-0.1-1.7-0.3s-0.9-0.5-1.3-0.9c-0.4-0.4-0.6-0.8-0.8-1.4
		c-0.2-0.5-0.3-1.1-0.3-1.8s0.1-1.3,0.3-1.8s0.5-1,0.9-1.4s0.8-0.7,1.3-0.9C38.5,35.6,39.1,35.5,39.7,35.5z M39.6,36.3
		c-0.4,0-0.8,0.1-1.2,0.2c-0.4,0.2-0.7,0.4-1,0.7s-0.5,0.7-0.6,1.1c-0.1,0.4-0.2,0.9-0.2,1.5c0,0.5,0.1,1,0.2,1.5
		c0.1,0.4,0.4,0.8,0.6,1.1c0.3,0.3,0.6,0.6,1,0.7c0.4,0.2,0.8,0.3,1.3,0.3s0.9-0.1,1.3-0.3c0.4-0.2,0.7-0.4,1-0.7s0.5-0.7,0.6-1.1
		c0.2-0.4,0.2-0.9,0.2-1.4s-0.1-1-0.2-1.5c-0.2-0.4-0.4-0.8-0.6-1.1c-0.3-0.3-0.6-0.6-1-0.7C40.5,36.4,40.1,36.3,39.6,36.3z"/>
	<path class="st0" d="M60.2,44.1h-1v-6.7l-2.8,6.7h-0.9l-2.8-6.6v6.6h-1.1v-8.5H53l3,7.1l2.9-7.1h1.4v8.5H60.2z"/>
	<path class="st0" d="M72,35.7c0.6,0,1.1,0.1,1.4,0.2c0.4,0.1,0.7,0.3,0.9,0.5c0.2,0.2,0.4,0.5,0.5,0.8s0.2,0.6,0.2,1
		c0,0.8-0.2,1.4-0.7,1.8c-0.5,0.4-1.2,0.7-2.2,0.7h-2.6v3.6h-1.1v-8.5L72,35.7L72,35.7z M69.5,39.8h2.3c0.8,0,1.3-0.2,1.7-0.5
		c0.3-0.3,0.5-0.7,0.5-1.2s-0.2-0.9-0.5-1.2s-0.9-0.4-1.7-0.4h-2.3V39.8z"/>
	<path class="st0" d="M89.1,44.1h-1.2l-1-2.6h-3.7l-1,2.6H81l3.5-8.5h1.1L89.1,44.1z M85.1,36.9c-0.3,0.6-0.5,1.3-0.8,1.9
		c-0.3,0.6-0.5,1.3-0.8,1.9h3.1L85.1,36.9z"/>
	<path class="st0" d="M103.6,44.1h-1.2l-4.8-6.8v6.8h-1.1v-8.5h1.1l4.8,6.8v-6.8h1v8.5H103.6z"/>
	<path class="st0" d="M115.2,40.6v3.5h-1.1v-3.5c-0.5-0.8-1.1-1.6-1.7-2.5s-1.2-1.7-1.7-2.5h1.3l2.8,4l2.7-4h1.3L115.2,40.6z"/>
	<path class="st0" d="M142.6,44.1h-5.9v-8.5h1.1v7.6h4.8L142.6,44.1L142.6,44.1z"/>
	<path class="st0" d="M151.1,44.1H150v-8.5h1.1V44.1z"/>
	<path class="st0" d="M167.8,44.1h-1v-6.7l-2.8,6.7h-0.9l-2.8-6.6v6.6h-1.1v-8.5h1.3l3,7.1l2.9-7.1h1.4L167.8,44.1L167.8,44.1z"/>
	<path class="st0" d="M177.1,44.1H176v-8.5h1.1V44.1z"/>
	<path class="st0" d="M191.6,36.5h-3v7.6h-1.1v-7.6h-3v-0.9h7.1V36.5z"/>
	<path class="st0" d="M205.3,36.5h-5.1v2.8h4.8v0.8h-4.8v3.1h5.2V44h-6.3v-8.5h6.2L205.3,36.5L205.3,36.5z"/>
	<path class="st0" d="M216.1,35.7c0.7,0,1.3,0.1,1.8,0.3s0.9,0.5,1.3,0.8c0.3,0.4,0.6,0.8,0.7,1.3c0.2,0.5,0.2,1.1,0.2,1.7
		c0,0.7-0.1,1.2-0.2,1.8c-0.2,0.5-0.4,1-0.7,1.4s-0.7,0.7-1.2,0.9s-1.1,0.3-1.8,0.3H213v-8.5H216.1z M214,43.3h1.9
		c0.6,0,1.1-0.1,1.5-0.2c0.4-0.2,0.7-0.4,1-0.7c0.2-0.3,0.4-0.7,0.5-1.1c0.1-0.4,0.1-0.9,0.1-1.4c0-1-0.2-1.8-0.7-2.4
		c-0.5-0.6-1.2-0.9-2.3-0.9h-2V43.3z"/>
</g>
<g>
	<path class="st0" d="M123.4,27.2h-2.2V5.6l-8.6,21.6h-2.1L101.8,6v21.2h-2.3V2.6h3.2l8.9,21.7l8.6-21.7h3.2
		C123.4,2.6,123.4,27.2,123.4,27.2z"/>
	<path class="st0" d="M138.8,2c1.7,0,3.2,0.3,4.6,1c1.4,0.6,2.6,1.5,3.6,2.7c1,1.1,1.8,2.5,2.4,4.1c0.6,1.6,0.8,3.3,0.8,5.2
		s-0.3,3.7-0.8,5.2c-0.6,1.6-1.3,2.9-2.4,4c-1,1.1-2.2,2-3.7,2.6c-1.4,0.6-3,0.9-4.8,0.9c-1.7,0-3.3-0.3-4.7-0.9s-2.6-1.5-3.6-2.6
		s-1.8-2.5-2.4-4.1s-0.8-3.3-0.8-5.3c0-1.9,0.3-3.7,0.8-5.3c0.6-1.6,1.4-2.9,2.4-4.1c1-1.1,2.3-2,3.7-2.6C135.4,2.3,137,2,138.8,2z
		 M138.5,4c-1.2,0-2.4,0.3-3.6,0.8c-1.1,0.5-2.1,1.3-3,2.2c-1.7,1.9-2.6,4.5-2.6,7.8c0,1.6,0.2,3.1,0.7,4.5c0.4,1.3,1.1,2.5,1.9,3.4
		c0.8,1,1.8,1.7,2.9,2.2c1.1,0.5,2.4,0.8,3.8,0.8c1.4,0,2.6-0.3,3.8-0.8s2.1-1.3,3-2.2c0.8-0.9,1.4-2.1,1.9-3.4
		c0.4-1.3,0.7-2.8,0.7-4.4s-0.2-3.1-0.7-4.5c-0.4-1.3-1.1-2.5-1.9-3.4c-0.8-0.9-1.8-1.7-3-2.2C141.2,4.2,139.9,4,138.5,4z"/>
	<path class="st0" d="M163.8,2.6c1.3,0,2.3,0.1,3.1,0.2c0.8,0.1,1.5,0.4,2.1,0.7c1,0.6,1.8,1.3,2.3,2.2s0.8,1.9,0.8,3
		c0,1.3-0.4,2.5-1.2,3.5s-1.8,1.6-3.2,1.9c0.6,0.2,1.1,0.3,1.5,0.4c0.4,0.1,0.7,0.3,1.1,0.5c0.9,0.6,1.6,1.3,2.1,2.2
		s0.7,1.9,0.7,2.9c0,1.4-0.3,2.7-1.1,3.8c-0.7,1.1-1.7,1.9-2.9,2.5c-1.2,0.5-2.8,0.8-4.8,0.8h-10.5V2.6H163.8z M156.2,13.5h6.5
		c1.1,0,2,0,2.6-0.1c0.7-0.1,1.2-0.2,1.7-0.4c0.8-0.3,1.5-0.8,2-1.5s0.7-1.5,0.7-2.5c0-1.9-0.8-3.2-2.5-3.9c-0.5-0.2-1-0.3-1.6-0.3
		c-0.6-0.1-1.4-0.1-2.3-0.1h-7.1L156.2,13.5L156.2,13.5z M156.2,25.2h7.3c1.3,0,2.4-0.1,3.2-0.2s1.5-0.4,2-0.8
		c1.4-0.9,2.1-2.3,2.1-4s-0.6-2.9-1.8-3.6c-1.2-0.8-3.1-1.1-5.6-1.1h-7.1L156.2,25.2L156.2,25.2z"/>
	<path class="st0" d="M178.8,27.2h-2.4V2.6h2.4V27.2z"/>
	<path class="st0" d="M199.6,27.2h-16.2V2.6h2.4v22.6h13.8V27.2z"/>
	<path class="st0" d="M219,4.6h-14.8v8.8H218v2h-13.8v9.8h14.9v2h-17.3V2.6H219V4.6z"/>
	<path class="st0" d="M236.4,9.7c-0.3-3.8-2.6-5.8-6.8-5.8c-1.9,0-3.4,0.4-4.5,1.3c-1.1,0.8-1.6,2-1.6,3.5c0,1.4,0.5,2.4,1.5,3
		c0.2,0.2,0.5,0.3,0.8,0.4c0.3,0.1,0.6,0.2,1,0.4c0.4,0.1,0.9,0.3,1.4,0.4c0.5,0.1,1.2,0.3,1.9,0.5c1,0.2,1.8,0.4,2.5,0.5
		c0.7,0.2,1.2,0.3,1.7,0.5c0.5,0.1,0.9,0.3,1.2,0.4c0.3,0.1,0.7,0.3,1,0.5c2,1.1,3,2.9,3,5.1c0,1.1-0.2,2.2-0.7,3.1
		c-0.5,1-1.2,1.8-2.1,2.4c-1.6,1.2-3.7,1.7-6.4,1.7c-3.1,0-5.5-0.7-7.2-2.2s-2.6-3.5-2.6-6.2V19h2.2c0.1,1.1,0.2,1.9,0.4,2.6
		s0.6,1.3,1,1.8c1.3,1.5,3.4,2.3,6.3,2.3c2.2,0,3.8-0.5,5-1.4s1.8-2.1,1.8-3.7c0-1.8-0.9-3.1-2.8-3.9c-0.3-0.1-0.5-0.2-0.8-0.3
		c-0.3-0.1-0.6-0.2-1-0.3c-0.4-0.1-0.9-0.2-1.5-0.3s-1.3-0.3-2.1-0.5s-1.5-0.4-2-0.5c-0.6-0.2-1.1-0.3-1.5-0.5
		c-0.4-0.1-0.8-0.3-1.1-0.5s-0.6-0.3-0.9-0.5c-1.4-1-2.2-2.5-2.2-4.5c0-2.1,0.8-3.7,2.3-4.9s3.6-1.8,6.3-1.8c2.8,0,5,0.7,6.5,2
		s2.4,3.2,2.5,5.7h-2.5V9.7z"/>
</g>
<g>
	<path class="st1" d="M46.6,5.7c-1.1-1.2-2.3-2.1-3.8-2.7s-3.1-1-4.9-1c-1.8,0-3.5,0.3-5,0.9S30.1,4.4,29,5.6
		c-1.1,1.1-1.9,2.5-2.5,4.1s-0.9,3.3-0.9,5.2s0.3,3.6,0.9,5.2s1.4,2.9,2.5,4s2.4,2,3.8,2.7c1.5,0.6,3.1,0.9,4.9,0.9
		c1.8,0,3.4-0.3,4.9-0.9s2.8-1.5,3.9-2.6c1-1.1,1.9-2.5,2.5-4c0.6-1.6,0.9-3.3,0.9-5.2s-0.3-3.6-0.9-5.1C48.4,8.2,47.6,6.8,46.6,5.7
		z M44.3,18.4c-0.3,1-0.8,1.9-1.5,2.6c-0.6,0.7-1.3,1.3-2.2,1.6c-0.9,0.4-1.8,0.6-2.9,0.6c-1.1,0-2-0.2-2.9-0.6s-1.6-1-2.2-1.7
		c-0.6-0.7-1.1-1.6-1.4-2.7s-0.5-2.3-0.5-3.6s0.2-2.5,0.5-3.5s0.8-1.8,1.5-2.6c0.7-0.7,1.4-1.3,2.3-1.7c0.9-0.4,1.8-0.6,2.7-0.6
		c1.1,0,2.1,0.2,2.9,0.6c0.9,0.4,1.6,1,2.2,1.7c0.6,0.7,1.1,1.6,1.5,2.7s0.5,2.3,0.5,3.6C44.8,16.2,44.6,17.4,44.3,18.4z"/>
	<path class="st1" d="M70.6,5.9c-1-1.1-2.3-1.9-3.8-2.5s-3.2-0.9-5.2-0.9h-9.4v24.7h9.6c2,0,3.7-0.3,5.1-0.9
		c1.5-0.6,2.7-1.5,3.7-2.7c1-1.1,1.7-2.5,2.2-4.1c0.5-1.5,0.7-3.2,0.7-5c0-1.7-0.2-3.3-0.7-4.8C72.3,8.2,71.6,6.9,70.6,5.9z M57.3,7
		h4.3c2.4,0,4.1,0.6,5.2,1.9s1.7,3.2,1.7,5.7c0,1.3-0.1,2.5-0.4,3.6c-0.2,1-0.6,1.8-1.2,2.5c-0.5,0.7-1.2,1.2-2.1,1.5
		c-0.9,0.4-2.1,0.6-3.5,0.6h-4C57.3,22.8,57.3,7,57.3,7z"/>
	<polygon class="st1" points="81,22.8 81,16.6 93.7,16.6 93.7,12.3 81,12.3 81,7 94.6,7 94.6,2.5 75.9,2.5 75.9,27.2 94.8,27.2 
		94.8,22.8 	"/>
	<path class="st1" d="M20,17.2h-1.1c-0.2,1.9-0.9,3.4-1.9,4.5c-1.1,1.1-2.4,1.6-4.2,1.6c-1,0-2-0.2-2.8-0.6s-1.5-0.9-2.1-1.6
		s-1.1-1.6-1.4-2.6C6.2,17.4,6,16.2,6,14.9s0.2-2.5,0.5-3.5s0.8-1.9,1.4-2.6C8.5,8,9.2,7.4,10.1,7c0.8-0.4,1.8-0.6,2.8-0.6
		c1.6,0,2.8,0.4,3.8,1.2s1.6,1.8,1.9,3h1.1h2.8h1.1v-0.1c-0.2-2-1-3.7-2.4-5.3C19.2,3.1,16.4,2,13,2c-1.8,0-3.5,0.3-4.9,1
		C6.6,3.6,5.3,4.5,4.2,5.6c-1,1.1-1.8,2.5-2.4,4.1S0.9,13,0.9,14.9s0.3,3.6,0.8,5.2c0.6,1.6,1.4,3,2.4,4.1s2.3,2,3.8,2.6
		s3.1,0.9,4.8,0.9c1.6,0,3-0.3,4.3-0.7c1.3-0.5,2.5-1.2,3.4-2.1c1-0.9,1.8-2,2.4-3.3s1-2.7,1.2-4.2v-0.1h-1L20,17.2L20,17.2z"/>
</g>
</svg>
